<svg xmlns="http://www.w3.org/2000/svg" width="372.334" height="372.334" viewBox="0 0 372.334 372.334">
  <g id="Grupo_2296" data-name="Grupo 2296" transform="translate(-1848 -154)">
    <g id="Grupo_2295" data-name="Grupo 2295" transform="translate(1856.156 162.156)">
      <path id="Rectángulo_414" data-name="Rectángulo 414" d="M9,0H333a9,9,0,0,1,9,9V287a55,55,0,0,1-55,55H9a9,9,0,0,1-9-9V9A9,9,0,0,1,9,0Z" transform="translate(0.185 0.185)" fill="#fff"/>
      <circle id="Elipse_8" data-name="Elipse 8" cx="106.5" cy="106.5" r="106.5" transform="translate(138.185 138.185)" fill="#fff"/>
    </g>
    <g id="calculator-2" transform="translate(1848 154)">
      <g id="Grupo_2278" data-name="Grupo 2278">
        <g id="Grupo_2277" data-name="Grupo 2277">
          <path id="Trazado_1191" data-name="Trazado 1191" d="M355.41,193.161V33.849A33.887,33.887,0,0,0,321.561,0H33.849A33.887,33.887,0,0,0,0,33.849V321.562A33.887,33.887,0,0,0,33.849,355.41H193.161a118.221,118.221,0,0,0,162.25-162.25ZM186.168,16.924H321.562a16.941,16.941,0,0,1,16.924,16.924V171.113a117.981,117.981,0,0,0-152.319-14.331ZM16.924,33.849A16.941,16.941,0,0,1,33.848,16.925H169.243V169.244H16.924V33.849ZM33.849,338.486a16.941,16.941,0,0,1-16.924-16.924V186.168H156.784a117.981,117.981,0,0,0,14.331,152.319ZM253.864,355.41A101.546,101.546,0,1,1,355.41,253.864,101.657,101.657,0,0,1,253.864,355.41Z" fill="#b33425"/>
          <path id="Trazado_1192" data-name="Trazado 1192" d="M140.159,97.849H114.773V72.462a8.462,8.462,0,1,0-16.925,0V97.849H72.461a8.462,8.462,0,1,0,0,16.924H97.849v25.386a8.462,8.462,0,1,0,16.925,0V114.773H140.16a8.462,8.462,0,1,0,0-16.924Z" transform="translate(-13.227 -13.227)" fill="#b33425"/>
          <path id="Trazado_1193" data-name="Trazado 1193" d="M361.955,115.128a8.457,8.457,0,0,0-8.462-8.462H285.8a8.462,8.462,0,0,0,0,16.925h67.7A8.457,8.457,0,0,0,361.955,115.128Z" transform="translate(-57.317 -22.045)" fill="#b33425"/>
          <path id="Trazado_1194" data-name="Trazado 1194" d="M139.885,290.479a8.458,8.458,0,0,0-11.966,0l-19.4,19.4-19.4-19.4a8.461,8.461,0,0,0-11.966,11.966l19.4,19.4-19.4,19.4a8.461,8.461,0,1,0,11.967,11.966l19.4-19.4,19.4,19.4a8.461,8.461,0,1,0,11.967-11.966l-19.4-19.4,19.4-19.4A8.46,8.46,0,0,0,139.885,290.479Z" transform="translate(-15.432 -59.522)" fill="#b33425"/>
          <path id="Trazado_1195" data-name="Trazado 1195" d="M349.083,277.333H264.462a8.463,8.463,0,0,0,0,16.925h84.622a8.463,8.463,0,1,0,0-16.925Z" transform="translate(-52.908 -57.317)" fill="#b33425"/>
          <path id="Trazado_1196" data-name="Trazado 1196" d="M349.083,341.333H264.462a8.462,8.462,0,0,0,0,16.925h84.622a8.462,8.462,0,1,0,0-16.925Z" transform="translate(-52.908 -70.544)" fill="#b33425"/>
        </g>
      </g>
    </g>
  </g>
</svg>
