<svg xmlns="http://www.w3.org/2000/svg" width="165" height="118" viewBox="0 0 165 118">
  <g id="Grupo_2268" data-name="Grupo 2268" transform="translate(707 -1288)">
    <circle id="Elipse_34" data-name="Elipse 34" cx="12" cy="12" r="12" transform="translate(-707 1288)" fill="#fff"/>
    <circle id="Elipse_37" data-name="Elipse 37" cx="12" cy="12" r="12" transform="translate(-660 1288)" fill="#fff"/>
    <circle id="Elipse_40" data-name="Elipse 40" cx="12" cy="12" r="12" transform="translate(-613 1288)" fill="#fff"/>
    <circle id="Elipse_55" data-name="Elipse 55" cx="12" cy="12" r="12" transform="translate(-566 1288)" fill="#fff"/>
    <circle id="Elipse_35" data-name="Elipse 35" cx="12" cy="12" r="12" transform="translate(-707 1335)" fill="#fff"/>
    <circle id="Elipse_38" data-name="Elipse 38" cx="12" cy="12" r="12" transform="translate(-660 1335)" fill="#fff"/>
    <circle id="Elipse_41" data-name="Elipse 41" cx="12" cy="12" r="12" transform="translate(-613 1335)" fill="#fff"/>
    <circle id="Elipse_56" data-name="Elipse 56" cx="12" cy="12" r="12" transform="translate(-566 1335)" fill="#fff"/>
    <circle id="Elipse_36" data-name="Elipse 36" cx="12" cy="12" r="12" transform="translate(-707 1382)" fill="#fff"/>
    <circle id="Elipse_39" data-name="Elipse 39" cx="12" cy="12" r="12" transform="translate(-660 1382)" fill="#fff"/>
    <circle id="Elipse_42" data-name="Elipse 42" cx="12" cy="12" r="12" transform="translate(-613 1382)" fill="#fff"/>
    <circle id="Elipse_57" data-name="Elipse 57" cx="12" cy="12" r="12" transform="translate(-566 1382)" fill="#fff"/>
  </g>
</svg>
